<svg viewBox="0 0 64 64" xmlns="http://www.w3.org/2000/svg">
  <defs>
    <style>
      .gear-main { fill: #1e40af; }
      .gear-secondary { fill: #3b82f6; }
      .production-line { fill: #64748b; }
    </style>
  </defs>
  
  <!-- Background circle -->
  <circle cx="32" cy="32" r="32" fill="#f8fafc"/>
  
  <!-- Main gear -->
  <g class="gear-main">
    <circle cx="32" cy="32" r="18" opacity="0.9" />
    <circle cx="32" cy="32" r="12" fill="none" stroke="#1e40af" stroke-width="2" opacity="0.7" />
    <circle cx="32" cy="32" r="6" opacity="0.8" />
    
    <!-- Gear teeth -->
    <rect x="30" y="10" width="4" height="6" />
    <rect x="30" y="48" width="4" height="6" />
    <rect x="10" y="30" width="6" height="4" />
    <rect x="48" y="30" width="6" height="4" />
    
    <!-- Diagonal teeth -->
    <rect x="44" y="16" width="4" height="6" transform="rotate(45 46 19)" />
    <rect x="16" y="16" width="4" height="6" transform="rotate(-45 18 19)" />
    <rect x="44" y="42" width="4" height="6" transform="rotate(-45 46 45)" />
    <rect x="16" y="42" width="4" height="6" transform="rotate(45 18 45)" />
  </g>
  
  <!-- Secondary smaller gear -->
  <g class="gear-secondary">
    <circle cx="48" cy="16" r="8" opacity="0.7" />
    <circle cx="48" cy="16" r="5" fill="none" stroke="#3b82f6" stroke-width="1.5" opacity="0.6" />
    <circle cx="48" cy="16" r="2.5" opacity="0.8" />
    
    <!-- Small gear teeth -->
    <rect x="47" y="6" width="2" height="3" />
    <rect x="47" y="23" width="2" height="3" />
    <rect x="38" y="15" width="3" height="2" />
    <rect x="55" y="15" width="3" height="2" />
  </g>
  
  <!-- Production line element -->
  <g class="production-line" opacity="0.6">
    <rect x="8" y="52" width="48" height="3" rx="1.5" />
    <rect x="12" y="48" width="2" height="8" />
    <rect x="20" y="48" width="2" height="8" />
    <rect x="28" y="48" width="2" height="8" />
    <rect x="36" y="48" width="2" height="8" />
    <rect x="44" y="48" width="2" height="8" />
    <rect x="52" y="48" width="2" height="8" />
  </g>
</svg>